<svg width="256" height="256" viewBox="0 0 256 256" fill="none" xmlns="http://www.w3.org/2000/svg">
<circle cx="128" cy="128" r="128" fill="#2B0236"/>
<circle cx="128" cy="128" r="127.509" stroke="white" stroke-opacity="0.25" stroke-width="0.982097"/>
<g filter="url(#filter0_d_2420_649)">
<path d="M34.4406 183.424C48.36 181.399 59.5435 178.845 67.348 176.839C87.1999 171.732 99.9866 171.694 117.554 169.303C120.088 168.958 123.208 169.793 125.483 171.079C142.004 180.477 159.063 182.772 176.188 173.767C181.698 170.868 186.114 165.425 190.184 160.453C192.469 157.669 194.36 155.816 198.066 155.336C205.64 154.357 213.147 152.831 221.594 151.381C220.98 153.781 220.663 155.557 220.058 157.227C211.284 181.821 195.579 198.947 168.931 203.824C140.18 209.084 115.02 202.48 95.062 180.237C92.4509 177.329 89.8974 177.828 86.9023 178.241C72.8293 180.141 58.7083 181.745 44.6641 183.866C44.5201 183.885 44.3281 183.914 44.0785 183.952C44.0785 183.952 43.4162 184.039 42.6962 184.116C41.9762 184.192 38.7988 184.48 34.4693 184.845C34.4597 184.375 34.4502 183.904 34.4406 183.424Z" fill="url(#paint0_linear_2420_649)"/>
<path d="M220.934 151.994C220.426 154.059 220.13 155.588 219.597 157.06L219.596 157.063C210.866 181.534 195.278 198.503 168.843 203.341C140.235 208.575 115.255 202.006 95.4279 179.909C94.0495 178.374 92.6547 177.711 91.1945 177.507C89.7719 177.308 88.3043 177.552 86.8351 177.754C72.7809 179.652 58.6431 181.258 44.5988 183.379C44.4507 183.399 44.2567 183.428 44.0109 183.466H44.0079C44.003 183.467 43.9951 183.468 43.9855 183.469C43.9663 183.471 43.9383 183.475 43.9025 183.48C43.8298 183.489 43.7247 183.502 43.5978 183.518C43.3437 183.549 43.0004 183.589 42.6437 183.627C41.9584 183.7 39.0114 183.966 34.9493 184.31C34.9462 184.156 34.9427 184.001 34.9396 183.846C48.6811 181.827 59.7329 179.304 67.4698 177.315C87.2861 172.217 99.9936 172.189 117.62 169.79C120.021 169.463 123.033 170.257 125.241 171.506C141.869 180.964 159.108 183.303 176.417 174.202C182.033 171.248 186.511 165.714 190.564 160.763C192.827 158.006 194.616 156.278 198.129 155.823C205.492 154.871 212.805 153.402 220.934 151.994Z" stroke="url(#paint1_linear_2420_649)" stroke-width="0.982097"/>
</g>
<path d="M94.9904 54.5432C124.351 46.4819 151.785 51.7537 174.562 73.6711C175.411 74.4891 176.195 75.3531 176.791 75.9993C170.701 82.0343 164.737 87.9423 158.521 94.1028C157.591 93.251 156.157 91.9304 154.717 90.6262L154.716 90.6243L153.958 89.9563C137.922 76.0769 114.336 72.3532 95.9777 80.926C66.6039 94.6428 59.4764 133.422 82.046 156.798V156.799C83.1172 157.913 84.4069 158.854 86.2452 160.346C76.5137 162.051 68.0779 163.632 59.671 164.869L57.9288 165.121C57.3393 165.206 56.4517 164.978 55.5782 164.522C54.7094 164.068 53.9814 163.453 53.6632 162.897H53.6622C27.9563 117.999 50.1177 67.5575 93.9513 54.8372L94.9904 54.5432ZM187.488 124.36C187.549 124.517 187.603 124.649 187.641 124.747C187.712 124.931 187.718 124.99 187.717 125.016C187.622 126.427 187.619 127.879 187.631 129.324C187.643 130.775 187.671 132.215 187.641 133.629C187.584 136.284 187.321 138.777 186.401 140.923L186.209 141.348C185.018 143.822 182.746 144.781 180.017 145.158C178.652 145.347 177.2 145.385 175.748 145.403C174.488 145.417 173.218 145.416 172.039 145.49L171.539 145.526C153.967 147.018 136.326 147.634 118.17 148.598V124.36H187.488Z" fill="url(#paint2_linear_2420_649)" stroke="url(#paint3_linear_2420_649)" stroke-width="0.982097"/>
<defs>
<filter id="filter0_d_2420_649" x="19.0812" y="145.621" width="217.872" height="84.8715" filterUnits="userSpaceOnUse" color-interpolation-filters="sRGB">
<feFlood flood-opacity="0" result="BackgroundImageFix"/>
<feColorMatrix in="SourceAlpha" type="matrix" values="0 0 0 0 0 0 0 0 0 0 0 0 0 0 0 0 0 0 127 0" result="hardAlpha"/>
<feOffset dy="9.5996"/>
<feGaussianBlur stdDeviation="7.67968"/>
<feComposite in2="hardAlpha" operator="out"/>
<feColorMatrix type="matrix" values="0 0 0 0 0 0 0 0 0 0 0 0 0 0 0 0 0 0 0.16 0"/>
<feBlend mode="normal" in2="BackgroundImageFix" result="effect1_dropShadow_2420_649"/>
<feBlend mode="normal" in="SourceGraphic" in2="effect1_dropShadow_2420_649" result="shape"/>
</filter>
<linearGradient id="paint0_linear_2420_649" x1="34.194" y1="205.668" x2="95.4773" y2="96.1883" gradientUnits="userSpaceOnUse">
<stop stop-color="#2D0038"/>
<stop offset="1" stop-color="#9D00CB"/>
</linearGradient>
<linearGradient id="paint1_linear_2420_649" x1="34.4406" y1="144.379" x2="221.627" y2="151.243" gradientUnits="userSpaceOnUse">
<stop stop-color="#EDA1FF" stop-opacity="0"/>
<stop offset="1" stop-color="#EDA1FF" stop-opacity="0.5"/>
</linearGradient>
<linearGradient id="paint2_linear_2420_649" x1="42.053" y1="165.915" x2="182.207" y2="74.0786" gradientUnits="userSpaceOnUse">
<stop stop-color="#6C0088"/>
<stop offset="1" stop-color="#9D00CB"/>
</linearGradient>
<linearGradient id="paint3_linear_2420_649" x1="42.2301" y1="165.647" x2="182.834" y2="74.9668" gradientUnits="userSpaceOnUse">
<stop stop-color="#EDA1FF" stop-opacity="0"/>
<stop offset="1" stop-color="#EDA1FF" stop-opacity="0.5"/>
</linearGradient>
</defs>
</svg>
